<svg width="178" height="60" viewBox="0 0 178 60" fill="none" xmlns="http://www.w3.org/2000/svg">
<g clip-path="url(#clip0_14_1025)">
<path d="M172.217 42.8574H165.369C162.855 42.8601 160.817 44.8948 160.814 47.4055V54.2277C160.817 56.7384 162.855 58.7731 165.369 58.7758H172.217C174.732 58.7731 176.77 56.7384 176.773 54.2277V47.4055C176.77 44.8948 174.732 42.8601 172.217 42.8574Z" fill="#B73935"/>
<path d="M172.217 22.041H165.369C162.855 22.0437 160.817 24.0784 160.814 26.5891V33.4113C160.817 35.922 162.855 37.9567 165.369 37.9594H172.217C174.732 37.9567 176.77 35.922 176.773 33.4113V26.5891C176.77 24.0784 174.732 22.0437 172.217 22.041Z" fill="#F1651F"/>
<path d="M172.217 1.22461H165.369C162.855 1.22733 160.817 3.26199 160.814 5.77271V12.5949C160.817 15.1056 162.855 17.1403 165.369 17.143H172.217C174.732 17.1403 176.77 15.1056 176.773 12.5949V5.77271C176.77 3.26199 174.732 1.22733 172.217 1.22461Z" fill="#C96331"/>
<path d="M172.744 41.6328H164.843C161.941 41.636 159.59 43.9822 159.586 46.8774V54.7556C159.59 57.6508 161.941 59.997 164.843 60.0002H172.744C175.646 59.997 177.997 57.6508 178 54.7556V46.8774C177.997 43.9822 175.646 41.636 172.744 41.6328ZM175.545 54.6569C175.542 56.2541 174.246 57.5481 172.647 57.5512H164.94C163.34 57.5481 162.045 56.2541 162.042 54.6569V46.976C162.045 45.3789 163.34 44.0849 164.94 44.0818H172.647C174.246 44.0849 175.542 45.3789 175.545 46.976V54.6569Z" fill="#FFA200"/>
<path d="M172.744 20.8164H164.843C161.941 20.8196 159.59 23.1672 159.586 26.0642V33.9359C159.59 36.8329 161.941 39.1806 164.843 39.1838H172.744C175.646 39.1806 177.997 36.8329 178 33.9359V26.0642C177.997 23.1672 175.646 20.8196 172.744 20.8164ZM175.545 33.8405C175.542 35.4377 174.246 36.7317 172.647 36.7348H164.94C163.34 36.7317 162.045 35.4377 162.042 33.8405V26.1596C162.045 24.5625 163.34 23.2684 164.94 23.2654H172.647C174.246 23.2684 175.542 24.5625 175.545 26.1596V33.8405Z" fill="#FFA200"/>
<path d="M172.744 0H164.843C161.941 0.00314377 159.59 2.35083 159.586 5.24781V13.1195C159.59 16.0165 161.941 18.3642 164.843 18.3673H172.744C175.646 18.3642 177.997 16.0165 178 13.1195V5.24781C177.997 2.35083 175.646 0.00314377 172.744 0ZM175.545 13.0241C175.542 14.6213 174.246 15.9153 172.647 15.9184H164.94C163.34 15.9153 162.045 14.6213 162.042 13.0241V5.34323C162.045 3.74605 163.34 2.45204 164.94 2.44898H172.647C174.246 2.45204 175.542 3.74605 175.545 5.34323V13.0241Z" fill="#FFA200"/>
<path d="M144.855 24.7118V35.5106H145.982V27.9373C146.89 26.3972 148.049 25.6272 149.458 25.6272C151.386 25.6272 152.35 26.8712 152.35 29.3593V35.5106H153.439V28.9344C153.513 27.7445 153.128 26.572 152.366 25.6653C151.618 24.8728 150.57 24.4459 149.49 24.4939C148.039 24.4957 146.701 25.2937 145.992 26.5806H145.944V24.7118H144.855Z" fill="#A7A9AC"/>
<path d="M143.627 24.5003H139.214C137.953 24.4195 136.709 24.8281 135.728 25.6447C134.307 27.0063 134.107 29.2432 135.265 30.846C135.83 31.5771 136.616 32.0961 137.499 32.3223V32.3681C136.01 32.8029 135.265 33.419 135.265 34.2163C135.265 35.0135 135.853 35.5419 137.03 35.8013V35.8528C134.881 36.2075 133.807 37.1231 133.807 38.5993C133.804 39.5129 134.285 40.356 135.064 40.8023C137.346 41.9278 140.008 41.9088 142.275 40.7508C142.997 40.2722 143.47 39.4875 143.565 38.6128C143.66 37.7381 143.367 36.8657 142.767 36.2362C142.223 35.7135 141.171 35.4065 139.611 35.3149C138.05 35.2234 137.119 35.0784 136.818 34.88C136.536 34.7202 136.362 34.4148 136.365 34.0847C136.371 33.7977 136.5 33.5278 136.717 33.3465C137.242 33.0062 137.826 32.7731 138.438 32.6599C139.187 32.4739 139.922 32.2271 140.633 31.9217C141.201 31.6554 141.69 31.241 142.052 30.7201C142.481 30.0574 142.69 29.2711 142.65 28.4771C142.579 27.3066 142.022 26.2233 141.119 25.5016H143.627V24.5003ZM142.454 38.4449C142.442 39.1294 142.053 39.748 141.449 40.0413C140.608 40.4852 139.668 40.6944 138.723 40.6478C136.205 40.6478 134.946 39.9478 134.946 38.5479C134.946 37.1479 136.28 36.4479 138.946 36.4479C141.285 36.4479 142.454 37.1154 142.454 38.4506V38.4449ZM141.516 28.5114C141.51 30.1824 140.192 31.5373 138.561 31.5498C137.773 31.5645 137.017 31.2383 136.477 30.6515C135.915 30.0712 135.607 29.2827 135.622 28.4656C135.618 27.6751 135.923 26.9159 136.471 26.3585C137.018 25.8012 137.761 25.4924 138.533 25.5016C139.323 25.4879 140.084 25.8063 140.639 26.3828C141.21 26.9369 141.526 27.7118 141.51 28.5171L141.516 28.5114Z" fill="#A7A9AC"/>
<path d="M130.124 18.3672V20.8162H131.352V18.3672H130.124Z" fill="#A7A9AC"/>
<path d="M130.124 24.4902V35.5106H131.352V24.4902H130.124Z" fill="#A7A9AC"/>
<path d="M125.402 24.4915C124.428 24.4685 123.478 24.7698 122.733 25.3381C122.036 25.8317 121.63 26.588 121.631 27.3883C121.629 27.9484 121.837 28.4928 122.221 28.9325C122.613 29.394 123.472 29.8626 124.795 30.3383C125.684 30.59 126.513 30.9891 127.241 31.5151C127.525 31.7993 127.678 32.1706 127.671 32.5535C127.682 33.0696 127.424 33.5605 126.975 33.8794C126.475 34.2406 125.848 34.4293 125.208 34.4119C123.915 34.3564 122.655 34.0243 121.531 33.4428V34.5397C122.584 35.1601 123.81 35.4963 125.066 35.5089C126.059 35.5365 127.03 35.2354 127.794 34.6622C128.507 34.1545 128.915 33.3737 128.896 32.5535C128.906 31.9547 128.699 31.3693 128.307 30.8868C127.914 30.3898 127.05 29.907 125.714 29.4384C124.827 29.199 123.998 28.8106 123.269 28.2935C122.989 28.0257 122.831 27.6718 122.827 27.3031C122.828 26.8009 123.096 26.3295 123.546 26.0357C124.05 25.6802 124.675 25.4922 125.314 25.5032C126.471 25.5665 127.582 25.937 128.507 26.5682V25.3914C127.573 24.8478 126.495 24.5391 125.385 24.4968L125.402 24.4915Z" fill="#A7A9AC"/>
<path d="M112.976 33.1389C112.126 32.3617 111.654 31.2725 111.674 30.1389C111.676 29.9604 111.689 29.7822 111.712 29.6051H120.296C120.37 28.2275 119.867 26.8796 118.901 25.8685C117.966 24.9606 116.691 24.4631 115.37 24.4914C114.049 24.5196 112.797 25.0711 111.905 26.0179C110.942 27.0773 110.435 28.4548 110.487 29.8667C110.432 31.358 110.985 32.8101 112.025 33.9076C113.024 34.9616 114.442 35.5454 115.916 35.509C117.435 35.5183 118.912 35.025 120.104 34.1105V32.8026C118.987 33.7739 117.552 34.3299 116.054 34.372C114.898 34.383 113.788 33.938 112.976 33.1389ZM113.163 26.3809C113.806 25.84 114.632 25.5491 115.482 25.5642C117.373 25.5642 118.523 26.598 118.934 28.6656H111.866C112.022 27.7858 112.479 26.9828 113.163 26.3863V26.3809Z" fill="#A7A9AC"/>
<path d="M106.858 18.3672V24.8081C105.878 24.2537 104.783 23.9474 103.665 23.9144C102.196 23.8744 100.778 24.4745 99.7621 25.5668C98.7241 26.6723 98.1643 28.1619 98.2096 29.6977C98.1743 31.2355 98.7439 32.7228 99.7895 33.8231C100.791 34.924 102.199 35.5367 103.665 35.5092C104.816 35.506 105.934 35.1238 106.858 34.4188V35.2731H108.028V18.3672H106.858ZM106.858 33.3285C106.016 33.9728 104.999 34.3287 103.95 34.3457C102.734 34.3758 101.562 33.8804 100.719 32.98C99.8589 32.0842 99.3928 30.8658 99.4287 29.6078C99.3868 28.3964 99.8224 27.219 100.637 26.3424C101.44 25.4896 102.555 25.0244 103.709 25.061C104.834 25.0812 105.927 25.443 106.852 26.1007L106.858 33.3285Z" fill="#A7A9AC"/>
<path d="M93.8225 24.4956C92.3347 24.4602 90.9062 25.0453 89.9189 26.0945C88.8734 27.2186 88.3265 28.6784 88.3914 30.1717C88.3266 31.5991 88.8729 32.9913 89.9076 34.0358C90.9499 35.0281 92.387 35.5619 93.8678 35.5068C94.9291 35.4921 95.9805 35.312 96.9793 34.9738V33.7746C96.0268 34.1639 95.0021 34.3722 93.9639 34.3875C92.7863 34.4382 91.6424 34.0091 90.8241 33.2097C90.0032 32.3299 89.5826 31.1813 89.653 30.0118C89.5986 28.8445 90.0172 27.7014 90.8241 26.814C91.5961 25.9975 92.7134 25.5464 93.8734 25.5828C94.8817 25.6142 95.872 25.8429 96.7813 26.2544V25.0232C95.8276 24.6982 94.825 24.5183 93.8112 24.4902L93.8225 24.4956Z" fill="#231F20"/>
<path d="M84.7036 18.3672V20.8162H85.9312V18.3672H84.7036Z" fill="#231F20"/>
<path d="M84.7036 24.4902V35.5106H85.9312V24.4902H84.7036Z" fill="#231F20"/>
<path d="M83.476 24.5003H79.0379C77.7762 24.4195 76.5309 24.8281 75.5501 25.6447C74.7452 26.3867 74.3013 27.4546 74.3372 28.5629C74.333 29.3905 74.5985 30.196 75.0918 30.8517C75.6567 31.5837 76.4431 32.103 77.3276 32.328V32.3681C75.837 32.8029 75.0918 33.419 75.0918 34.2163C75.0918 35.0135 75.688 35.5419 76.8804 35.8013V35.8528C74.7303 36.2075 73.6553 37.1231 73.6553 38.5993C73.653 39.5129 74.1343 40.356 74.9129 40.8023C77.1967 41.9278 79.8606 41.9088 82.1289 40.7508C82.8504 40.2722 83.3241 39.4875 83.4194 38.6128C83.5147 37.7381 83.2216 36.8657 82.6208 36.2362C82.0767 35.7135 81.0222 35.4065 79.4572 35.3149C77.8921 35.2234 76.9605 35.0784 76.6624 34.88C76.3828 34.7203 76.2096 34.4182 76.2097 34.0904C76.2141 33.803 76.3431 33.5325 76.5618 33.3522C77.0869 33.0116 77.6715 32.7784 78.2834 32.6656C79.0335 32.4795 79.7681 32.2327 80.48 31.9275C81.0479 31.6611 81.5375 31.2468 81.8997 30.7258C82.3265 30.0623 82.5342 29.2761 82.4922 28.4828C82.4248 27.3123 81.8715 26.2273 80.9719 25.5016H83.476V24.5003ZM82.3022 38.4449C82.2892 39.1307 81.897 39.7496 81.2905 40.0413C80.449 40.485 79.5083 40.6942 78.5628 40.6478C76.0476 40.6478 74.7899 39.9478 74.7899 38.5479C74.7899 37.1479 76.124 36.4479 78.792 36.4479C81.1321 36.4479 82.3022 37.1154 82.3022 38.4506V38.4449ZM81.3632 28.5114C81.3541 30.1812 80.0373 31.5342 78.4063 31.5498C77.6207 31.5629 76.866 31.2368 76.3271 30.6515C75.7655 30.0709 75.4571 29.2825 75.4719 28.4656C75.4673 27.6751 75.7732 26.9159 76.3208 26.3585C76.8684 25.8012 77.6118 25.4924 78.384 25.5016C79.1747 25.4872 79.9365 25.8058 80.4912 26.3828C81.0624 26.9369 81.379 27.7118 81.3632 28.5171V28.5114Z" fill="#231F20"/>
<path d="M72.0347 34.4075C71.8502 34.4075 71.7637 34.2259 71.7637 33.8733V27.2389C71.7995 26.445 71.414 25.685 70.7315 25.2037C69.9892 24.7097 69.0901 24.4597 68.1769 24.4932C66.8589 24.5373 65.5813 24.9262 64.492 25.615V26.7741C65.4537 25.9845 66.67 25.5112 67.952 25.428C69.6397 25.428 70.4835 26.1509 70.4835 27.5968V28.9482C68.3537 29.048 66.7141 29.4308 65.5646 30.0967C64.4882 30.641 63.8231 31.6904 63.8346 32.8264C63.8429 33.5542 64.1897 34.2434 64.7861 34.7173C65.3712 35.237 66.1555 35.5195 66.9659 35.5026C68.2836 35.4538 69.5434 34.9881 70.5354 34.1832C70.541 34.5499 70.6212 34.9123 70.7719 35.2515C70.8975 35.4298 71.1197 35.5286 71.3485 35.5079C71.8368 35.5079 72.6056 35.1411 73.6552 34.4075V33.4727C72.8094 34.0959 72.2692 34.4075 72.0347 34.4075ZM70.5297 33.211C69.6973 34.0221 68.5639 34.5107 67.358 34.5785C66.7671 34.5907 66.1922 34.4005 65.7434 34.0443C65.3347 33.7398 65.0971 33.2801 65.0975 32.7943C65.1334 31.8603 65.7299 31.0232 66.643 30.6256C67.831 30.0264 69.181 29.7592 70.5297 29.8563V33.211Z" fill="#231F20"/>
<path d="M46.6484 24.7056V35.5106H47.8173V27.9329C48.7524 26.3919 49.8657 25.6214 51.157 25.6214C51.9787 25.5936 52.7638 25.9548 53.2666 26.5918C53.8389 27.4001 54.1155 28.3741 54.0514 29.3558V35.5106H55.2426V28.1455C55.6375 27.4173 56.1571 26.7608 56.7788 26.2048C57.2781 25.8065 57.9051 25.5941 58.5489 25.6051C59.3815 25.5687 60.1767 25.9459 60.664 26.6082C61.2108 27.4228 61.4762 28.3878 61.421 29.3612V35.5106H62.601V28.876C62.66 27.7245 62.2857 26.5917 61.549 25.6923C60.8598 24.8936 59.8328 24.451 58.7659 24.493C57.2519 24.493 55.9773 25.358 54.942 27.0879C54.2555 25.3616 53.0662 24.4966 51.3741 24.493C49.9269 24.493 48.7543 25.198 47.8563 26.6082H47.8062V24.7056H46.6484Z" fill="#231F20"/>
<path d="M42.9209 24.4902L36.8276 29.7306L43.8026 35.5106H45.4207L38.4347 29.7251L44.4833 24.4902H42.9209Z" fill="#231F20"/>
<path d="M35.6001 18.3672V35.51H36.8277V18.3672H35.6001Z" fill="#231F20"/>
<path d="M31.2156 24.4956C29.7276 24.4594 28.2988 25.0447 27.312 26.0945C26.2665 27.2186 25.7196 28.6783 25.7845 30.1717C25.7197 31.5991 26.2659 32.9912 27.3007 34.0357C28.3426 35.0285 29.78 35.5624 31.2608 35.5067C32.3221 35.492 33.3735 35.3119 34.3724 34.9737V33.7745C33.4199 34.1638 32.3952 34.3721 31.357 34.3874C30.1793 34.4382 29.0355 34.009 28.2172 33.2096C27.3968 32.3295 26.9763 31.1811 27.0461 30.0118C26.9916 28.8445 27.4103 27.7013 28.2172 26.814C28.9892 25.9975 30.1064 25.5464 31.2665 25.5828C32.2747 25.6143 33.265 25.843 34.1744 26.2544V25.0232C33.2206 24.6982 32.2181 24.5183 31.2043 24.4902L31.2156 24.4956Z" fill="#231F20"/>
<path d="M24.1598 34.408C23.9786 34.408 23.8879 34.23 23.8879 33.8739V27.2406C23.9393 26.4441 23.563 25.6751 22.8816 25.1844C22.1279 24.6935 21.2174 24.4509 20.2963 24.4954C18.9781 24.5491 17.7031 24.9453 16.6179 25.6384V26.7973C17.5827 26.0081 18.8025 25.535 20.0881 25.4514C21.7808 25.4514 22.6271 26.1742 22.6271 27.6198V28.9497C20.4872 29.0494 18.8427 29.4321 17.6937 30.098C16.615 30.643 15.9483 31.6917 15.9586 32.8271C15.9604 33.5505 16.2972 34.2386 16.884 34.7178C17.4708 35.2373 18.2574 35.5198 19.0702 35.5029C20.3918 35.4541 21.6554 34.9885 22.6503 34.1837C22.6565 34.5503 22.737 34.9125 22.8874 35.2519C23.0143 35.4292 23.2365 35.5277 23.4657 35.5082C23.9554 35.5082 24.7266 35.1415 25.7792 34.408V33.4734C24.9309 34.0965 24.3911 34.408 24.1598 34.408ZM22.6503 33.2117C21.8154 34.0226 20.6787 34.5112 19.4693 34.5789C18.8767 34.5907 18.3003 34.4005 17.8499 34.0448C17.4421 33.7394 17.2061 33.2799 17.2079 32.7951C17.2415 31.862 17.8377 31.0248 18.7521 30.6267C19.9436 30.0277 21.2977 29.7605 22.6503 29.8576V33.2117Z" fill="#231F20"/>
<path d="M12.2759 18.3672V35.51H13.5035V18.3672H12.2759Z" fill="#231F20"/>
<path d="M7.01274 26.6118C8.6997 25.7192 9.54318 24.4467 9.54318 22.7943C9.59992 21.5428 9.05021 20.3379 8.05881 19.5409C7.04976 18.7584 5.58487 18.3672 3.66416 18.3672H0V35.5003H5.14852C6.68625 35.582 8.20629 35.1477 9.45552 34.2696C10.505 33.4805 11.0975 32.2447 11.0451 30.9535C11.049 28.6402 9.70486 27.193 7.01274 26.6118ZM1.34995 19.4612H3.1908C6.42445 19.4612 8.04128 20.6007 8.04128 22.8798C8.04128 25.1589 6.44198 26.2984 3.24339 26.2984H1.34995V19.4612ZM8.42114 33.4605C7.42547 34.1555 6.21227 34.49 4.99074 34.4063H1.34995V27.4209H4.4005C7.86401 27.4209 9.59577 28.5908 9.59577 30.9307C9.63153 31.9051 9.19672 32.8394 8.42114 33.4548V33.4605Z" fill="#231F20"/>
</g>
<defs>
<clipPath id="clip0_14_1025">
<rect width="178" height="60" fill="white"/>
</clipPath>
</defs>
</svg>
