<svg width="22" height="22" viewBox="0 0 22 22" fill="none" xmlns="http://www.w3.org/2000/svg">
<g clip-path="url(#clip0_14_1058)">
<path d="M603 -299H-837V106H603V-299Z" fill="#E2E2E2"/>
<path d="M19.1176 0H2.88235C1.29047 0 0 1.29047 0 2.88235V19.1176C0 20.7095 1.29047 22 2.88235 22H19.1176C20.7095 22 22 20.7095 22 19.1176V2.88235C22 1.29047 20.7095 0 19.1176 0Z" fill="black"/>
<path d="M12.1416 10.0812L16.6089 5H15.5503L11.6714 9.41192L8.57328 5H5L9.68492 11.6716L5 17H6.05866L10.1549 12.3409L13.4267 17H17L12.1416 10.0812ZM10.6916 11.7304L10.217 11.066L6.44011 5.77981H8.06615L11.1141 10.046L11.5888 10.7103L15.5508 16.2557H13.9248L10.6916 11.7304Z" fill="white"/>
</g>
<defs>
<clipPath id="clip0_14_1058">
<rect width="22" height="22" fill="white"/>
</clipPath>
</defs>
</svg>
