<svg width="209" height="17" viewBox="0 0 209 17" fill="none" xmlns="http://www.w3.org/2000/svg">
<g clip-path="url(#clip0_7_77)">
<path d="M5.61194 16C9.85794 16 13.334 12.546 13.334 8.27801C13.334 4.05401 9.85794 0.600006 5.61194 0.600006H0.397949C0.177949 0.600006 0.00195312 0.798005 0.00195312 1.01801V15.582C0.00195312 15.802 0.177949 16 0.397949 16H5.61194ZM5.34793 13.316H2.83994V3.262H5.34793C8.20793 3.262 10.2979 5.41801 10.2979 8.27801C10.2979 11.16 8.20793 13.316 5.34793 13.316ZM16.2544 16C16.6064 16 16.8044 15.78 16.8924 15.56L17.9704 13.184H24.5485L25.6265 15.56C25.7805 15.868 25.9345 16 26.2645 16H28.1785C28.5085 16 28.6844 15.714 28.5524 15.428L21.7764 0.622005C21.7104 0.490005 21.6225 0.380005 21.4025 0.380005H21.1824C20.9844 0.380005 20.8744 0.490005 20.8084 0.622005L13.9664 15.428C13.8344 15.714 14.0105 16 14.3405 16H16.2544ZM23.4705 10.742H19.0485L21.2045 5.90201H21.2704L23.4705 10.742ZM34.7289 16.22C34.9269 16.22 35.037 16.11 35.103 15.978L41.9229 1.17201C42.0549 0.886007 41.879 0.600006 41.549 0.600006H39.3049C39.1069 0.600006 38.975 0.732005 38.931 0.842005L34.7069 10.302H34.5529L30.3289 0.842005C30.2849 0.732005 30.153 0.600006 29.955 0.600006H27.7109C27.3809 0.600006 27.2049 0.886007 27.3369 1.17201L34.1349 15.978C34.201 16.11 34.3109 16.22 34.5089 16.22H34.7289ZM46.2515 16C46.4715 16 46.6694 15.802 46.6694 15.582V1.01801C46.6694 0.798005 46.4715 0.600006 46.2515 0.600006H44.2054C43.9854 0.600006 43.7874 0.798005 43.7874 1.01801V15.582C43.7874 15.802 43.9854 16 44.2054 16H46.2515ZM63.1199 16.22C63.3399 16.22 63.538 16.044 63.538 15.824V1.01801C63.538 0.798005 63.3399 0.600006 63.1199 0.600006H61.0959C60.8539 0.600006 60.6779 0.798005 60.6779 1.01801V10.104H60.6559L51.504 0.380005H50.9539C50.7339 0.380005 50.5359 0.556005 50.5359 0.776005V15.582C50.5359 15.802 50.7339 16 50.9539 16H52.9559C53.1979 16 53.374 15.802 53.374 15.582V6.12201H53.3959L62.5919 16.22H63.1199ZM74.2244 16.22C76.1824 16.22 78.0744 15.538 79.5704 14.086C79.7244 13.932 79.7685 13.646 79.5925 13.492L78.2285 12.084C78.0965 11.952 77.8545 11.93 77.6785 12.084C76.7545 12.832 75.6324 13.338 74.3124 13.338C71.4964 13.338 69.3845 11.006 69.3845 8.25601C69.3845 5.48401 71.4745 3.13 74.2905 3.13C75.5225 3.13 76.7545 3.61401 77.6785 4.42801C77.8545 4.60401 78.0745 4.60401 78.2285 4.42801L79.5704 3.04201C79.7464 2.86601 79.7465 2.60201 79.5485 2.42601C78.0525 1.08401 76.4464 0.380005 74.2244 0.380005C69.8244 0.380005 66.2824 3.92201 66.2824 8.32201C66.2824 12.722 69.8244 16.22 74.2244 16.22ZM84.7789 16C84.9989 16 85.197 15.802 85.197 15.582V1.01801C85.197 0.798005 84.9989 0.600006 84.7789 0.600006H82.7329C82.5129 0.600006 82.3149 0.798005 82.3149 1.01801V15.582C82.3149 15.802 82.5129 16 82.7329 16H84.7789ZM96.2299 16C96.4499 16 96.6479 15.802 96.6479 15.582V9.97201H99.09L102.016 15.802C102.06 15.89 102.17 16 102.368 16H104.678C105.052 16 105.206 15.648 105.052 15.362L102.038 9.77401C103.952 9.00401 105.294 7.35401 105.294 5.33001C105.294 2.71201 103.138 0.600006 100.498 0.600006H94.2059C93.9639 0.600006 93.788 0.798005 93.788 1.01801V15.582C93.788 15.802 93.9639 16 94.2059 16H96.2299ZM100.256 7.61801H96.6699V3.24001H100.256C101.422 3.24001 102.434 4.20801 102.434 5.37401C102.434 6.60601 101.422 7.61801 100.256 7.61801ZM117.674 16C117.916 16 118.092 15.802 118.092 15.582V13.778C118.092 13.558 117.916 13.36 117.674 13.36H111.162V9.51001H116.596C116.816 9.51001 117.014 9.334 117.014 9.092V7.26601C117.014 7.04601 116.816 6.84801 116.596 6.84801H111.162V3.24001H117.674C117.916 3.24001 118.092 3.04201 118.092 2.82201V1.01801C118.092 0.798005 117.916 0.600006 117.674 0.600006H108.72C108.478 0.600006 108.302 0.798005 108.302 1.01801V15.582C108.302 15.802 108.478 16 108.72 16H117.674ZM125.149 16.22C128.251 16.22 130.209 14.13 130.209 11.864C130.209 9.026 127.745 7.75001 125.611 6.89201C123.829 6.16601 123.015 5.46201 123.015 4.42801C123.015 3.72401 123.697 2.88801 124.951 2.88801C126.161 2.88801 127.833 3.98801 128.009 4.09801C128.273 4.27401 128.603 4.09801 128.779 3.83401L129.615 2.58001C129.769 2.36001 129.703 1.98601 129.483 1.85401C129.043 1.52401 127.327 0.380005 125.083 0.380005C121.585 0.380005 120.133 2.64601 120.133 4.60401C120.133 7.20001 122.201 8.52001 124.269 9.35601C126.117 10.104 127.063 10.874 127.063 11.996C127.063 12.942 126.205 13.69 125.061 13.69C123.631 13.69 121.849 12.392 121.739 12.326C121.541 12.172 121.167 12.172 120.991 12.48L120.199 13.844C120.001 14.196 120.111 14.306 120.309 14.504C120.749 14.922 122.377 16.22 125.149 16.22ZM139.685 16.22C144.085 16.22 147.605 12.722 147.605 8.32201C147.605 3.92201 144.085 0.380005 139.685 0.380005C135.285 0.380005 131.787 3.92201 131.787 8.32201C131.787 12.722 135.285 16.22 139.685 16.22ZM139.685 13.36C136.913 13.36 134.647 11.094 134.647 8.32201C134.647 5.55001 136.913 3.24001 139.685 3.24001C142.457 3.24001 144.745 5.55001 144.745 8.32201C144.745 11.094 142.457 13.36 139.685 13.36ZM158.82 16C159.062 16 159.238 15.802 159.238 15.582V13.778C159.238 13.558 159.062 13.36 158.82 13.36H153.21V1.01801C153.21 0.798005 153.012 0.600006 152.792 0.600006H150.768C150.526 0.600006 150.35 0.798005 150.35 1.01801V15.582C150.35 15.802 150.526 16 150.768 16H158.82ZM164.556 16.22C164.754 16.22 164.864 16.11 164.93 15.978L171.75 1.17201C171.882 0.886007 171.706 0.600006 171.376 0.600006H169.132C168.934 0.600006 168.802 0.732005 168.758 0.842005L164.534 10.302H164.38L160.156 0.842005C160.112 0.732005 159.98 0.600006 159.782 0.600006H157.538C157.208 0.600006 157.032 0.886007 157.164 1.17201L163.962 15.978C164.028 16.11 164.138 16.22 164.336 16.22H164.556ZM182.987 16C183.229 16 183.405 15.802 183.405 15.582V13.778C183.405 13.558 183.229 13.36 182.987 13.36H176.475V9.51001H181.909C182.129 9.51001 182.327 9.334 182.327 9.092V7.26601C182.327 7.04601 182.129 6.84801 181.909 6.84801H176.475V3.24001H182.987C183.229 3.24001 183.405 3.04201 183.405 2.82201V1.01801C183.405 0.798005 183.229 0.600006 182.987 0.600006H174.033C173.791 0.600006 173.615 0.798005 173.615 1.01801V15.582C173.615 15.802 173.791 16 174.033 16H182.987ZM194.548 16C194.768 16 194.944 15.802 194.944 15.582V1.45801C194.944 1.23801 194.768 1.04001 194.548 1.04001H193.008L189.84 3.70201C189.752 3.79001 189.708 3.92201 189.73 4.09801L189.862 5.17601C189.884 5.37401 190.104 5.50601 190.302 5.46201L192.238 5.04401V15.582C192.238 15.802 192.414 16 192.656 16H194.548ZM201.263 16.352C203.155 15.736 208.589 13.184 208.589 6.76001C208.589 3.46001 206.807 0.688005 203.353 0.688005C200.647 0.688005 198.381 2.95401 198.381 5.72601C198.381 8.87201 200.669 10.5 202.869 10.5C203.903 10.5 205.003 10.104 205.377 9.88401C204.695 12.304 201.571 13.778 200.537 14.108C200.119 14.24 200.031 14.482 200.141 14.746L200.647 16.044C200.735 16.33 200.955 16.44 201.263 16.352ZM203.397 8.34401C201.989 8.34401 200.867 7.17801 200.867 5.77001C200.867 4.38401 201.989 3.196 203.375 3.196C205.157 3.196 205.949 4.93401 205.949 6.43001C205.707 7.22201 204.849 8.34401 203.397 8.34401Z" fill="white"/>
</g>
<defs>
<clipPath id="clip0_7_77">
<rect width="209" height="17" fill="white"/>
</clipPath>
</defs>
</svg>
